<?xml version="1.0" standalone="no"?>
<!DOCTYPE svg PUBLIC "-//W3C//DTD SVG 20010904//EN"
 "http://www.w3.org/TR/2001/REC-SVG-20010904/DTD/svg10.dtd">
<svg version="1.0" xmlns="http://www.w3.org/2000/svg"
 width="200.000000pt" height="200.000000pt" viewBox="0 0 200.000000 200.000000"
 preserveAspectRatio="xMidYMid meet">
<metadata>
Created by potrace 1.11, written by Peter Selinger 2001-2013
</metadata>
<g transform="translate(0.000000,200.000000) scale(0.100000,-0.100000)"
fill="#000000" stroke="none">
<path d="M910 1854 c-405 -60 -745 -409 -786 -809 -3 -27 -7 -55 -9 -62 -6
-17 11 -26 52 -28 37 -2 37 0 48 85 32 261 193 497 429 630 64 36 179 78 245
90 52 9 85 13 189 19 7 1 12 17 12 45 l0 43 -47 0 c-27 0 -86 -6 -133 -13z"/>
<path d="M975 1694 c-106 -15 -164 -32 -248 -75 -213 -108 -362 -293 -422
-524 -28 -109 -28 -271 1 -385 162 -639 970 -823 1394 -318 90 107 159 262
176 396 37 287 -68 554 -291 738 -109 89 -272 158 -408 170 -39 3 -81 7 -92 8
-11 1 -60 -3 -110 -10z"/>
</g>
</svg>
